<mxfile host="app.diagrams.net" modified="2021-05-06T07:41:25.993Z" agent="5.0 (Macintosh; Intel Mac OS X 10_15_5) AppleWebKit/537.36 (KHTML, like Gecko) Chrome/90.0.4430.93 Safari/537.36" etag="oKv4MjWz1YUaioJfIE7c" version="14.6.9" type="github">
  <diagram id="6doVrPJ-ObZSOuQhxs8i" name="Page-1">
    <mxGraphModel dx="825" dy="525" grid="1" gridSize="10" guides="1" tooltips="1" connect="1" arrows="1" fold="1" page="1" pageScale="1" pageWidth="827" pageHeight="1169" math="0" shadow="0">
      <root>
        <mxCell id="0" />
        <mxCell id="1" parent="0" />
      </root>
    </mxGraphModel>
  </diagram>
</mxfile>
